<svg xmlns="http://www.w3.org/2000/svg" viewBox="0 0 24 24" fill="none">
  <path d="M12 2C6.48 2 2 6.58 2 12.25C2 16.77 4.87 20.6 8.84 21.95
    C9.34 22.05 9.5 21.73 9.5 21.46V19.88
    C6.73 20.5 6.14 18.68 6.14 18.68
    C5.68 17.5 5.03 17.18 5.03 17.18
    C4.12 16.53 5.1 16.54 5.1 16.54
    C6.1 16.62 6.63 17.6 6.63 17.6
    C7.53 19.18 8.97 18.72 9.54 18.44
    C9.64 17.77 9.9 17.32 10.19 17.06
    C7.97 16.8 5.63 15.92 5.63 11.75
    C5.63 10.56 6.03 9.59 6.69 8.84
    C6.59 8.58 6.23 7.5 6.79 6.03
    C6.79 6.03 7.64 5.75 9.5 7.03
    C10.32 6.8 11.16 6.68 12 6.68
    C12.84 6.68 13.68 6.8 14.5 7.03
    C16.36 5.75 17.21 6.03 17.21 6.03
    C17.77 7.5 17.41 8.58 17.31 8.84
    C17.97 9.59 18.37 10.56 18.37 11.75
    C18.37 15.93 16.02 16.8 13.79 17.05
    C14.16 17.38 14.5 18.02 14.5 18.98
    V21.46C14.5 21.73 14.66 22.05 15.16 21.95
    C19.13 20.6 22 16.77 22 12.25
    C22 6.58 17.52 2 12 2Z" stroke="white" stroke-width="1.4" stroke-linejoin="round"></path>
</svg>
